<svg width="800" height="800" viewBox="0 0 800 800" fill="none" xmlns="http://www.w3.org/2000/svg">
<g clip-path="url(#clip0_195_63)">
<path d="M0 0H230V180C215 200 205 175 192 198C178 175 168 200 154 178C140 200 128 175 114 198C100 175 88 200 74 178C60 200 48 175 34 198C20 175 10 195 0 180V0Z" stroke="#1A1A1A" stroke-width="7" stroke-linecap="round" stroke-linejoin="round"/>
<path opacity="0.55" d="M60 10C70 80 60 130 74 178" stroke="#1A1A1A" stroke-width="3" stroke-linecap="round"/>
<path opacity="0.55" d="M130 10C140 80 130 130 140 198" stroke="#1A1A1A" stroke-width="3" stroke-linecap="round"/>
<path opacity="0.55" d="M190 10C200 80 190 130 192 198" stroke="#1A1A1A" stroke-width="3" stroke-linecap="round"/>
<path d="M800 0H570V180C585 200 595 175 608 198C622 175 632 200 646 178C660 200 672 175 686 198C700 175 712 200 726 178C740 200 752 175 766 198C780 175 790 195 800 180V0Z" stroke="#1A1A1A" stroke-width="7" stroke-linecap="round" stroke-linejoin="round"/>
<path opacity="0.55" d="M740 10C730 80 740 130 726 178" stroke="#1A1A1A" stroke-width="3" stroke-linecap="round"/>
<path opacity="0.55" d="M670 10C660 80 670 130 660 198" stroke="#1A1A1A" stroke-width="3" stroke-linecap="round"/>
<path opacity="0.55" d="M610 10C600 80 610 130 608 198" stroke="#1A1A1A" stroke-width="3" stroke-linecap="round"/>
<path d="M400 413C448.601 413 488 373.601 488 325C488 276.399 448.601 237 400 237C351.399 237 312 276.399 312 325C312 373.601 351.399 413 400 413Z" stroke="#1A1A1A" stroke-width="7"/>
<path d="M400 382C431.48 382 457 356.48 457 325C457 293.52 431.48 268 400 268C368.52 268 343 293.52 343 325C343 356.48 368.52 382 400 382Z" stroke="#1A1A1A" stroke-width="5"/>
<path d="M400 353C415.464 353 428 340.464 428 325C428 309.536 415.464 297 400 297C384.536 297 372 309.536 372 325C372 340.464 384.536 353 400 353Z" fill="#F1ECDE"/>
<path d="M400 353C415.464 353 428 340.464 428 325C428 309.536 415.464 297 400 297C384.536 297 372 309.536 372 325C372 340.464 384.536 353 400 353Z" stroke="#1A1A1A" stroke-width="5"/>
<path d="M350 430H450V615H350V430Z" fill="#F1ECDE"/>
<path d="M170 615H630L660 660H140L170 615Z" fill="#F1ECDE"/>
<path d="M210 744C217.732 744 224 737.732 224 730C224 722.268 217.732 716 210 716C202.268 716 196 722.268 196 730C196 737.732 202.268 744 210 744Z" fill="#1A1A1A"/>
<path d="M270 749C277.732 749 284 742.732 284 735C284 727.268 277.732 721 270 721C262.268 721 256 727.268 256 735C256 742.732 262.268 749 270 749Z" fill="#1A1A1A"/>
<path d="M335 744C342.732 744 349 737.732 349 730C349 722.268 342.732 716 335 716C327.268 716 321 722.268 321 730C321 737.732 327.268 744 335 744Z" fill="#1A1A1A"/>
<path d="M400 752C407.732 752 414 745.732 414 738C414 730.268 407.732 724 400 724C392.268 724 386 730.268 386 738C386 745.732 392.268 752 400 752Z" fill="#1A1A1A"/>
<path d="M465 744C472.732 744 479 737.732 479 730C479 722.268 472.732 716 465 716C457.268 716 451 722.268 451 730C451 737.732 457.268 744 465 744Z" fill="#1A1A1A"/>
<path d="M530 749C537.732 749 544 742.732 544 735C544 727.268 537.732 721 530 721C522.268 721 516 727.268 516 735C516 742.732 522.268 749 530 749Z" fill="#1A1A1A"/>
<path d="M590 744C597.732 744 604 737.732 604 730C604 722.268 597.732 716 590 716C582.268 716 576 722.268 576 730C576 737.732 582.268 744 590 744Z" fill="#1A1A1A"/>
</g>
<defs>
<clipPath id="clip0_195_63">
<rect width="800" height="800" fill="white"/>
</clipPath>
</defs>
</svg>
