<svg viewBox="0 0 1228 148" xmlns="http://www.w3.org/2000/svg" xmlns:xlink="http://www.w3.org/1999/xlink" xml:space="preserve" overflow="hidden"><g transform="translate(472 -648)"><g><g><g><g><g><g><g><path d="M487.515 129.413 562.134 129.413 562.134 142.02 473.334 142.02 473.334 2.53729 559.777 2.53729 559.777 15.1433 487.515 15.1433 487.515 63.0194 555.048 63.0194 555.048 75.6255 487.515 75.6255 487.515 129.413Z" fill="#AF2630" fill-rule="nonzero" fill-opacity="1" transform="matrix(1.00918 0 0 1 -470.4 649.581)"/><path d="M609.582 2.53729 655.85 2.53729C664.511 2.53729 673.206 3.97893 681.932 6.87339 690.662 9.76787 698.54 14.1375 705.558 19.9711 712.576 25.816 718.254 33.1024 722.589 41.8418 726.926 50.5809 729.082 60.7285 729.082 72.2841 729.082 83.8395 726.915 94.1546 722.589 102.827 718.254 111.499 712.576 118.752 705.558 124.596 698.54 130.442 690.662 134.811 681.932 137.695 673.206 140.589 664.511 142.031 655.85 142.031L609.582 142.031 609.582 2.53729ZM623.764 129.424 651.915 129.424C662.42 129.424 671.573 127.782 679.385 124.496 687.197 121.21 693.656 116.908 698.775 111.589 703.894 106.269 707.738 100.189 710.298 93.3612 712.856 86.5328 714.14 79.5034 714.14 72.2841 714.14 65.0646 712.856 58.0352 710.298 51.2069 707.738 44.3786 703.894 38.2991 698.775 32.9795 693.656 27.66 687.186 23.3573 679.385 20.0717 671.573 16.7861 662.42 15.1433 651.915 15.1433L623.764 15.1433 623.764 129.413 623.764 129.424Z" fill="#AF2630" fill-rule="nonzero" fill-opacity="1" transform="matrix(1.00918 0 0 1 -470.4 649.581)"/><path d="M829.72 142.534C819.214 142.534 810.622 140.723 803.928 137.113 797.232 133.504 791.914 128.933 787.979 123.423 784.045 117.903 781.319 111.901 779.81 105.397 778.3 98.8931 777.541 92.7575 777.541 86.9799L777.541 2.53729 791.724 2.53729 791.724 85.3929C791.724 91.0365 792.382 96.5238 793.689 101.843 794.997 107.163 797.131 111.89 800.093 116.025 803.043 120.16 806.956 123.513 811.805 126.072 816.655 128.632 822.635 129.916 829.72 129.916 836.806 129.916 842.775 128.632 847.635 126.072 852.485 123.513 856.396 120.16 859.346 116.025 862.298 111.89 864.431 107.163 865.75 101.843 867.058 96.5238 867.717 91.0365 867.717 85.3929L867.717 2.53729 881.898 2.53729 881.898 86.9688C881.898 92.7464 881.139 98.8931 879.63 105.386 878.121 111.89 875.394 117.892 871.461 123.412 867.527 128.933 862.174 133.492 855.413 137.102 848.651 140.712 840.091 142.523 829.72 142.523L829.72 142.534Z" fill="#AF2630" fill-rule="nonzero" fill-opacity="1" transform="matrix(1.00918 0 0 1 -470.4 649.581)"/><path d="M1095.91 142.031 1080.36 142.031 1140.61 2.53729 1154.39 2.53729 1214.25 142.031 1198.49 142.031 1183.14 105.386 1111.08 105.386 1095.91 142.031ZM1116.38 92.3777 1177.82 92.3777 1147.1 18.2947 1116.37 92.3777 1116.38 92.3777Z" fill="#AF2630" fill-rule="nonzero" fill-opacity="1" transform="matrix(1.00918 0 0 1 -470.4 649.581)"/><path d="M1055.28 117.557C1052.94 120.954 1050.12 124.161 1046.83 127.19 1043.52 130.218 1039.7 132.878 1035.36 135.18 1031.03 137.483 1026.23 139.293 1020.98 140.646 1015.74 141.986 1010 142.657 1003.78 142.657 993.419 142.657 983.832 140.892 975.025 137.371 966.219 133.851 958.642 128.978 952.293 122.753 945.946 116.528 940.994 109.141 937.43 100.581 933.865 92.0315 932.088 82.6552 932.088 72.4743 932.088 62.2934 933.899 52.917 937.532 44.3676 941.152 35.8184 946.181 28.4313 952.585 22.1954 958.998 15.9707 966.576 11.098 975.315 7.57774 984.065 4.05743 993.543 2.2917 1003.78 2.2917 1008.83 2.2917 1013.78 2.80577 1018.64 3.82274 1023.5 4.83973 1028.06 6.28138 1032.34 8.13652 1036.62 9.99167 1040.5 12.2156 1044 14.8084 1047.5 17.401 1050.42 20.3403 1052.74 23.6035L1041.08 31.907C1039.65 29.7724 1037.75 27.6378 1035.35 25.4923 1032.95 23.3577 1030.13 21.4689 1026.9 19.8373 1023.66 18.2058 1020.13 16.8871 1016.31 15.8811 1012.49 14.8754 1008.37 14.3725 1003.97 14.3725 995.028 14.3725 987.028 15.9371 979.975 19.0773 972.913 22.2177 966.923 26.4421 962.006 31.7729 957.077 37.1036 953.322 43.2724 950.74 50.3019 948.148 57.3202 946.851 64.7184 946.851 72.4854 946.851 80.2523 948.181 87.6507 950.83 94.6802 953.479 101.698 957.267 107.879 962.196 113.198 967.111 118.529 973.103 122.753 980.165 125.893 987.229 129.034 995.152 130.598 1003.97 130.598 1011.87 130.598 1019.38 129.023 1026.51 125.882 1033.63 122.742 1039.6 117.713 1044.39 110.795L1055.28 117.59 1055.28 117.557Z" fill="#AF2630" fill-rule="nonzero" fill-opacity="1" transform="matrix(1.00918 0 0 1 -470.4 649.581)"/><path d="M106.269 45.6876C106.269 53.8878 104.752 60.8315 101.718 66.5188 98.6834 72.0738 94.5937 76.5706 89.4483 80.0095 84.3031 83.4482 78.3661 85.9612 71.6378 87.5483 64.9094 89.1354 57.9171 89.9289 50.661 89.9289L33.8398 89.9289 33.8398 142.9-0.000147928 142.9-0.000147928 2.4382 51.4525 2.4382C59.1044 2.4382 66.2287 3.23177 72.8251 4.8189 79.5536 6.27378 85.3585 8.72061 90.24 12.1595 95.2533 15.4659 99.1452 19.8967 101.916 25.4517 104.818 30.8744 106.269 37.6197 106.269 45.6876ZM72.4293 45.8859C72.4293 42.5796 71.7697 39.8681 70.4504 37.752 69.1312 35.6358 67.3501 33.9825 65.1072 32.7922 62.8645 31.6019 60.2919 30.8082 57.3894 30.4116 54.6189 30.0146 51.7164 29.8163 48.682 29.8163L33.8398 29.8163 33.8398 62.9477 48.0884 62.9477C51.2546 62.9477 54.289 62.6833 57.1914 62.1542 60.0939 61.625 62.6667 60.6993 64.9094 59.3766 67.2841 58.0541 69.1312 56.3347 70.4504 54.2186 71.7697 51.97 72.4293 49.1926 72.4293 45.8859Z" fill="#AF2630" fill-rule="nonzero" fill-opacity="1" transform="matrix(1.00918 0 0 1 -470.4 649.581)"/><path d="M214.448 142.9 184.171 87.1515 172.693 87.1515 172.693 142.9 139.446 142.9 139.446 2.4382 192.877 2.4382C199.606 2.4382 206.137 3.16564 212.47 4.6205 218.934 5.94312 224.673 8.25769 229.686 11.5642 234.83 14.8708 238.922 19.2354 241.956 24.6581 244.99 30.0807 246.507 36.8261 246.507 44.8941 246.507 54.4169 243.934 62.4187 238.789 68.8994 233.645 75.3803 226.521 80.0095 217.417 82.7869L254.027 142.9 214.448 142.9ZM213.063 45.4893C213.063 42.1826 212.337 39.5374 210.886 37.5534 209.567 35.4374 207.786 33.8503 205.543 32.7922 203.433 31.6019 200.992 30.8082 198.221 30.4116 195.583 30.0146 193.01 29.8163 190.502 29.8163L172.495 29.8163 172.495 62.5509 188.524 62.5509C191.295 62.5509 194.131 62.3525 197.033 61.9557 199.937 61.4267 202.575 60.5671 204.95 59.3766 207.324 58.1863 209.238 56.4669 210.688 54.2186 212.272 51.97 213.063 49.0603 213.063 45.4893Z" fill="#AF2630" fill-rule="nonzero" fill-opacity="1" transform="matrix(1.00918 0 0 1 -470.4 649.581)"/><path d="M299.149 21.2857C327.53-7.09511 373.535-7.09511 401.916 21.2857 430.298 49.6664 430.298 95.6717 401.916 124.052 373.535 152.433 327.53 152.433 299.149 124.052 270.77 95.6717 270.77 49.6664 299.149 21.2857ZM350.533 112.418C372.489 112.418 390.289 94.6181 390.289 72.6612 390.289 50.7044 372.489 32.9049 350.533 32.9049 328.575 32.9049 310.776 50.7044 310.776 72.6612 310.776 94.6181 328.575 112.418 350.533 112.418Z" fill="#AF2630" fill-rule="evenodd" fill-opacity="1" transform="matrix(1.00918 0 0 1 -470.4 649.581)"/></g></g></g></g></g></g></g></g></svg>